# xmcd CD database file
#
# Track frame offsets:
#	183
#	20203
#	31035
#	49805
#	63148
#	75948
#	107843
#	118273
#	130935
#	142270
#	155565
#	174463
#	184163
#	204680
#	219803
#	232813
#
# Disc length: 3332 seconds
#
# Revision: 0
# Processed by: cddbd v1.5.1PL2 Copyright (c) Steve Scherf et al.
# Submitted via: Feurio! 1.68 - http://www.feurio.com
#
DISCID=db0d0210
DTITLE=Various Artist - Kings Of Country
DYEAR=1989
DGENRE=Country
TTITLE0=Bellamy Brothers - If I Said You Had A Beautiful Body
TTITLE1=Bellamy Brothers - Let Your Love Flow
TTITLE2=Charlie Rich - Let's Take It Nice And Easy
TTITLE3=Charlie Rich - Behind Closed Door
TTITLE4=Boxcar Willie - Hobo Heaven
TTITLE5=Boxcar Willie - Hank Williams Meddley
TTITLE6=Faron Young - Hello Walls
TTITLE7=Faron Young - Four In The Morning
TTITLE8=George Jones - No Show Jones
TTITLE9=George Jones - The Race Is On
TTITLE10=George Jones - Bartender Blues
TTITLE11=Babby Bare - White Freight Liner Blues
TTITLE12=Nitty Gritty Dirt Band - Cadilac Ranch
TTITLE13=Hoyt Axton - Evangelica
TTITLE14=Micky Gilley - Headache Tomorrow, Heartache Tonight
TTITLE15=Starlight Express - Hooked On Country Music
EXTD=
EXTT0=
EXTT1=
EXTT2=
EXTT3=
EXTT4=
EXTT5=
EXTT6=
EXTT7=
EXTT8=
EXTT9=
EXTT10=
EXTT11=
EXTT12=
EXTT13=
EXTT14=
EXTT15=
PLAYORDER=
